<?xml version="1.0" encoding="utf-8"?>
<svg version="1.1" xmlns="http://www.w3.org/2000/svg" xmlns:xlink="http://www.w3.org/1999/xlink" x="0px" y="0px"
	 viewBox="0 0 140 30" style="enable-background:new 0 0 140 30;" xml:space="preserve" width="140" height="30">
<path style="fill:#FF8000" d="M136.9,28V4.5c0-1.6-0.5-2.5-2.3-2.5h-5.9V10c0,0.8-0.9,1.3-1.6,0.6c-1.9-1.9-5.4-5.2-8.9-8
	c-0.8-0.7-2-0.8-3-0.5h-0.1V26c0,1.3,0.4,1.9,2,1.9h6.1v-7.8c0-0.7,0.9-1.3,1.7-0.5c2,2.1,5.8,6,8.8,8c1.3,0.8,3,0.4,3,0.4L136.9,28
	z M99.2,20.5c3,0,5.3-2.5,5.3-5.6s-2.3-5.6-5.3-5.6s-5.3,2.5-5.3,5.6S96.2,20.5,99.2,20.5 M99.2,28.3c-7.4,0-13.4-6-13.4-13.4
	s6-13.4,13.4-13.4c7.4,0,13.4,6,13.4,13.4S106.6,28.3,99.2,28.3 M83.2,4c0-1.1-0.9-1.9-1.9-1.9H77c-1.1,0-1.9,0.9-1.9,1.9v21.9
	c0,1.1,0.9,1.9,1.9,1.9h4.2c1.1,0,1.9-0.9,1.9-1.9V4z M51.1,5.3c0,0-3.2-3.6-9.2-3.6c-7.3,0-13.1,5.9-13.1,13.4
	c0,7.5,5.7,13.4,13.1,13.4c6,0,9.2-3.7,9.2-3.7s-2.1-2.9-3.1-3.9c-1-1-2.1-1.1-3.1-0.7c-0.6,0.3-1.4,0.6-2.4,0.6
	c-3.3,0-5.3-2.6-5.3-5.6c0-3,2-5.6,5.3-5.6c0.8,0,1.7,0.3,2.3,0.5c1.1,0.4,2.4,0.2,3.4-0.8C49,8.4,51.1,5.3,51.1,5.3 M72.9,5.3
	c0,0-3.2-3.6-9.2-3.6c-7.3,0-13.1,5.9-13.1,13.4c0,7.5,5.7,13.4,13.1,13.4c6,0,9.2-3.7,9.2-3.7s-2.1-2.9-3.1-3.9
	c-1-1-2.1-1.1-3.1-0.7c-0.7,0.3-1.4,0.6-2.4,0.6c-3.3,0-5.3-2.6-5.3-5.6c0-3,2-5.6,5.3-5.6c0.8,0,1.7,0.3,2.3,0.5
	c1.1,0.4,2.4,0.2,3.4-0.8C70.8,8.4,72.9,5.3,72.9,5.3 M30.2,27.9c0,0,0.5-1.1-0.3-2.5C29.1,24,16.7,1.6,16.7,1.6h-0.1L3.5,25.4
	c-0.9,1.5-0.3,2.5-0.3,2.5h8.2c0,0,3.7-7.4,4.2-8.5s1.4-1,2,0c0.5,1,4.5,8.5,4.5,8.5L30.2,27.9z"/>
</svg>
