<?xml version="1.0" encoding="utf-8"?>
<svg xmlns="http://www.w3.org/2000/svg" xmlns:xlink="http://www.w3.org/1999/xlink" x="0px" y="0px" viewBox="0 0 24 20" style="enable-background:new 0 0 24 20;" xml:space="preserve" width="24" height="20">
<path style="fill:#35537F;" transform="translate(1052.000000, 42.000000)" class="st0" d="M-1034-26.8c0,0.3-0.1,0.5-0.3,0.8l-2.5,2.5
	c-0.1,0.1-0.3,0.2-0.4,0.3c-0.2,0.1-0.4,0.1-0.5,0.2c0,0-0.1,0-0.1,0c-0.1,0-0.1,0-0.2,0c-0.2,0-0.6,0-1.2-0.1s-1.2-0.3-2-0.6
	c-0.8-0.3-1.7-0.8-2.7-1.5c-1-0.6-2-1.5-3.2-2.7c-0.9-0.9-1.6-1.7-2.2-2.5c-0.6-0.8-1.1-1.5-1.4-2.2c-0.4-0.7-0.6-1.3-0.8-1.8
	c-0.2-0.6-0.3-1-0.4-1.4c-0.1-0.4-0.1-0.7-0.1-0.9s0-0.4,0-0.4c0-0.2,0.1-0.4,0.2-0.5c0.1-0.2,0.2-0.3,0.3-0.4l2.5-2.5
	c0.2-0.2,0.4-0.3,0.6-0.3c0.2,0,0.3,0,0.4,0.1s0.2,0.2,0.3,0.4l2,3.9c0.1,0.2,0.1,0.4,0.1,0.7c-0.1,0.2-0.2,0.4-0.3,0.6l-0.9,0.9
	c0,0,0,0.1-0.1,0.1c0,0.1,0,0.1,0,0.1c0.1,0.3,0.2,0.6,0.3,0.9c0.2,0.3,0.4,0.7,0.7,1.1c0.3,0.4,0.8,0.9,1.4,1.5
	c0.6,0.6,1.1,1,1.5,1.4c0.4,0.3,0.8,0.6,1.1,0.7c0.3,0.2,0.5,0.2,0.7,0.3l0.2,0c0,0,0.1,0,0.1,0c0.1,0,0.1,0,0.1-0.1l1.1-1.1
	c0.2-0.2,0.5-0.3,0.8-0.3c0.2,0,0.4,0,0.5,0.1h0l3.7,2.2C-1034.2-27.3-1034.1-27.1-1034-26.8z"/>
</svg>
